<?xml version="1.0" encoding="UTF-8"?>
<svg id="uuid-09d33428-7e04-4a57-82b3-603a118942e8" xmlns="http://www.w3.org/2000/svg" version="1.1" viewBox="0 0 74.3 18">
  <!-- Generator: Adobe Illustrator 29.0.1, SVG Export Plug-In . SVG Version: 2.1.0 Build 192)  -->
  <defs>
    <style>
      .st0 {
        fill: #fff41f;
      }
    </style>
  </defs>
  <path class="st0" d="M74.1,10h-1.1c0-1.5-.1-3,0-3,0,0-.2,0-.3,0,0-1.8,0-7-.1-7C54.3-.2,36.1,0,18,.8c-5.2.2-10.3.5-15.5.7,0,0,0,2.5,0,4.7-.8,0-1.7,0-2.5,0,0,0,0,7.5.2,7.5,1.1,0,2.3,0,3.4,0,0,2,0,4.1.1,4.1,9.3-.2,18.6-.4,27.9-.6,0,.5,0,.8,0,.8,13.3-.3,26.5-.6,39.8-.8,0,0,0-.5,0-1.2h2.9c0,0,0-6-.1-6h0Z"/>
</svg>